<?xml version="1.0" encoding="UTF-8" standalone="no"?>
<!-- Created with Inkscape (http://www.inkscape.org/) -->

<svg
   xmlns:dc="http://purl.org/dc/elements/1.1/"
   xmlns:cc="http://creativecommons.org/ns#"
   xmlns:rdf="http://www.w3.org/1999/02/22-rdf-syntax-ns#"
   xmlns:svg="http://www.w3.org/2000/svg"
   xmlns="http://www.w3.org/2000/svg"
   xmlns:sodipodi="http://sodipodi.sourceforge.net/DTD/sodipodi-0.dtd"
   xmlns:inkscape="http://www.inkscape.org/namespaces/inkscape"
   width="56.654812mm"
   height="60.954979mm"
   viewBox="0 0 56.654812 60.954979"
   version="1.1"
   id="svg845"
   inkscape:version="0.92.5 (2060ec1f9f, 2020-04-08)"
   sodipodi:docname="animation.svg">
  <defs
     id="defs839" />
  <sodipodi:namedview
     id="base"
     pagecolor="#ffffff"
     bordercolor="#666666"
     borderopacity="1.0"
     inkscape:pageopacity="0.0"
     inkscape:pageshadow="2"
     inkscape:zoom="1.4"
     inkscape:cx="203.12692"
     inkscape:cy="-8.816634"
     inkscape:document-units="mm"
     inkscape:current-layer="layer1"
     showgrid="false"
     fit-margin-top="2"
     fit-margin-left="2"
     fit-margin-bottom="2"
     fit-margin-right="2"
     inkscape:window-width="1866"
     inkscape:window-height="1016"
     inkscape:window-x="54"
     inkscape:window-y="27"
     inkscape:window-maximized="1" />
  <metadata
     id="metadata842">
    <rdf:RDF>
      <cc:Work
         rdf:about="">
        <dc:format>image/svg+xml</dc:format>
        <dc:type
           rdf:resource="http://purl.org/dc/dcmitype/StillImage" />
        <dc:title></dc:title>
      </cc:Work>
    </rdf:RDF>
  </metadata>
  <g
     inkscape:label="Camada 1"
     inkscape:groupmode="layer"
     id="layer1"
     transform="translate(-32.075567,-18.629802)">
    <rect
       style="opacity:1;fill:none;fill-opacity:1;fill-rule:nonzero;stroke:#100808;stroke-width:0.20000003;stroke-linecap:butt;stroke-linejoin:round;stroke-miterlimit:4;stroke-dasharray:none;stroke-dashoffset:0;stroke-opacity:1"
       id="rect1395"
       width="5.6053681"
       height="8.5099573"
       x="39.063919"
       y="45.153214"
       ry="0" />
    <rect
       style="opacity:1;fill:none;fill-opacity:1;fill-rule:nonzero;stroke:#100808;stroke-width:0.2;stroke-linecap:butt;stroke-linejoin:round;stroke-miterlimit:4;stroke-dasharray:none;stroke-dashoffset:0;stroke-opacity:1"
       id="rect1395-3"
       width="5.6053681"
       height="8.5099573"
       x="46.350777"
       y="45.153214"
       ry="0" />
    <text
       xml:space="preserve"
       style="font-style:normal;font-variant:normal;font-weight:normal;font-stretch:normal;font-size:4.93888855px;line-height:100%;font-family:Arial;-inkscape-font-specification:Arial;text-align:start;writing-mode:lr-tb;text-anchor:start;opacity:1;fill:#cd0303;fill-opacity:1;fill-rule:nonzero;stroke:#cd0303;stroke-width:0.2;stroke-linecap:butt;stroke-linejoin:round;stroke-miterlimit:4;stroke-dasharray:none;stroke-dashoffset:0;stroke-opacity:1"
       x="53.480881"
       y="50.687527"
       id="text1414"><tspan
         sodipodi:role="line"
         id="tspan1412"
         x="53.480881"
         y="50.687527"
         style="fill:#cd0303;fill-opacity:1;stroke:#cd0303;stroke-width:0.2;stroke-miterlimit:4;stroke-dasharray:none;stroke-opacity:1">-</tspan></text>
    <rect
       style="opacity:1;fill:none;fill-opacity:1;fill-rule:nonzero;stroke:#cd0303;stroke-width:0.2;stroke-linecap:butt;stroke-linejoin:round;stroke-miterlimit:4;stroke-dasharray:none;stroke-dashoffset:0;stroke-opacity:1"
       id="rect1395-3-6"
       width="9.4807758"
       height="8.5099573"
       x="56.652718"
       y="45.153214"
       ry="0" />
    <rect
       style="opacity:1;fill:none;fill-opacity:1;fill-rule:nonzero;stroke:#100808;stroke-width:0.2;stroke-linecap:butt;stroke-linejoin:round;stroke-miterlimit:4;stroke-dasharray:none;stroke-dashoffset:0;stroke-opacity:1"
       id="rect1395-3-7"
       width="5.6053681"
       height="8.5099573"
       x="70.83007"
       y="45.153214"
       ry="0" />
    <text
       xml:space="preserve"
       style="font-style:normal;font-variant:normal;font-weight:normal;font-stretch:normal;font-size:4.93888855px;line-height:100%;font-family:Arial;-inkscape-font-specification:Arial;text-align:start;writing-mode:lr-tb;text-anchor:start;opacity:1;fill:#000000;fill-opacity:1;fill-rule:nonzero;stroke:#100808;stroke-width:0.2;stroke-linecap:butt;stroke-linejoin:round;stroke-miterlimit:4;stroke-dasharray:none;stroke-dashoffset:0;stroke-opacity:1"
       x="67.658234"
       y="50.687527"
       id="text1414-5"><tspan
         sodipodi:role="line"
         id="tspan1412-3"
         x="67.658234"
         y="50.687527"
         style="fill:#000000;fill-opacity:1;stroke-width:0.2">-</tspan></text>
    <text
       xml:space="preserve"
       style="font-style:normal;font-variant:normal;font-weight:normal;font-stretch:normal;font-size:4.93888855px;line-height:100%;font-family:Arial;-inkscape-font-specification:Arial;text-align:start;writing-mode:lr-tb;text-anchor:start;opacity:1;fill:#1a1a1a;fill-opacity:1;fill-rule:nonzero;stroke:none;stroke-width:0.2;stroke-linecap:butt;stroke-linejoin:round;stroke-miterlimit:4;stroke-dasharray:none;stroke-dashoffset:0;stroke-opacity:1"
       x="35.212757"
       y="65.010056"
       id="text1494"><tspan
         sodipodi:role="line"
         id="tspan1492"
         x="35.212757"
         y="65.010056"
         style="stroke:none;stroke-width:0.2">m <tspan
   style="font-size:2.82222223px"
   id="tspan1535">ou</tspan> t</tspan></text>
    <path
       id="path868-6"
       d="m 41.762505,54.474764 2.17522,2.175378 a 0.22434021,0.22434021 0 0 1 0.0691,0.159014 l 1.6e-4,0.0039 a 0.22558375,0.22558375 0 0 1 -0.0637,0.157585 0.22865292,0.22865292 0 0 1 -0.32544,7.14e-4 l -1.78887,-1.789059 v 6.970263 a 0.22664208,0.22664208 0 1 1 -0.45326,0 v -6.970263 l -1.78834,1.788345 a 0.22690667,0.22690667 0 0 1 -0.32049,0.0057 0.22389042,0.22389042 0 0 1 -0.0683,-0.161395 0.23677562,0.23677562 0 0 1 0.0676,-0.164307 l 2.17593,-2.175746 a 0.22719771,0.22719771 0 0 1 0.32049,-7.9e-5 z"
       inkscape:connector-curvature="0"
       style="stroke-width:0.26458332" />
    <path
       id="path868-6-5"
       d="m 49.270495,44.2748 2.175221,-2.175378 a 0.22434021,0.22434021 0 0 0 0.0691,-0.159014 l 1.6e-4,-0.0039 a 0.22558375,0.22558375 0 0 0 -0.0637,-0.157585 0.22865292,0.22865292 0 0 0 -0.32544,-7.14e-4 l -1.788871,1.789059 v -6.970263 a 0.22664208,0.22664208 0 1 0 -0.45326,0 v 6.970263 l -1.78834,-1.788345 a 0.22690667,0.22690667 0 0 0 -0.32049,-0.0057 0.22389042,0.22389042 0 0 0 -0.0683,0.161395 0.23677562,0.23677562 0 0 0 0.0676,0.164307 l 2.17593,2.175746 a 0.22719771,0.22719771 0 0 0 0.32049,7.9e-5 z"
       inkscape:connector-curvature="0"
       style="stroke-width:0.26458332" />
    <text
       xml:space="preserve"
       style="font-style:normal;font-variant:normal;font-weight:normal;font-stretch:normal;font-size:2.82222223px;line-height:100%;font-family:Arial;-inkscape-font-specification:Arial;text-align:start;writing-mode:lr-tb;text-anchor:start;opacity:1;fill:#1a1a1a;fill-opacity:1;fill-rule:nonzero;stroke:none;stroke-width:0.2;stroke-linecap:butt;stroke-linejoin:round;stroke-miterlimit:4;stroke-dasharray:none;stroke-dashoffset:0;stroke-opacity:1"
       x="33.98875"
       y="24.165159"
       id="text1586"><tspan
         sodipodi:role="line"
         id="tspan1584"
         x="33.98875"
         y="24.165159"
         style="font-size:4.93888903px;stroke-width:0.2">t, b, s, e, x <tspan
   style="font-size:2.82222223px"
   id="tspan1656">ou</tspan> y</tspan></text>
    <path
       id="path868-6-6"
       d="m 61.230807,54.274312 2.17522,2.175378 a 0.22434021,0.22434021 0 0 1 0.0691,0.159014 l 1.6e-4,0.0039 a 0.22558375,0.22558375 0 0 1 -0.0637,0.157585 0.22865292,0.22865292 0 0 1 -0.32544,7.15e-4 l -1.78887,-1.78906 v 6.970264 a 0.22664208,0.22664208 0 1 1 -0.45326,0 v -6.970264 l -1.78834,1.788345 a 0.22690667,0.22690667 0 0 1 -0.32049,0.0057 0.22389042,0.22389042 0 0 1 -0.0683,-0.161395 0.23677562,0.23677562 0 0 1 0.0676,-0.164307 l 2.17593,-2.175746 a 0.22719771,0.22719771 0 0 1 0.32049,-7.9e-5 z"
       inkscape:connector-curvature="0"
       style="fill:#cd0303;fill-opacity:1;stroke-width:0.26458332" />
    <text
       xml:space="preserve"
       style="font-style:normal;font-variant:normal;font-weight:normal;font-stretch:normal;font-size:2.82222223px;line-height:100%;font-family:Arial;-inkscape-font-specification:Arial;text-align:start;writing-mode:lr-tb;text-anchor:start;opacity:1;fill:#cd0303;fill-opacity:1;fill-rule:nonzero;stroke:none;stroke-width:0.2;stroke-linecap:butt;stroke-linejoin:round;stroke-miterlimit:4;stroke-dasharray:none;stroke-dashoffset:0;stroke-opacity:1"
       x="56.082218"
       y="64.45015"
       id="text1615"><tspan
         sodipodi:role="line"
         id="tspan1613"
         x="56.082218"
         y="64.45015"
         style="stroke-width:0.2">opcional</tspan></text>
    <path
       id="path868-6-6-2"
       d="m 61.297369,65.065498 2.17522,2.175378 a 0.22434021,0.22434021 0 0 1 0.0691,0.159014 l 1.6e-4,0.0039 a 0.22558375,0.22558375 0 0 1 -0.0637,0.157585 0.22865292,0.22865292 0 0 1 -0.32544,7.14e-4 l -1.78887,-1.789059 v 6.970264 a 0.22664208,0.22664208 0 1 1 -0.45326,0 V 65.77303 l -1.78834,1.788345 a 0.22690667,0.22690667 0 0 1 -0.32049,0.0057 0.22389042,0.22389042 0 0 1 -0.0683,-0.161395 0.23677562,0.23677562 0 0 1 0.0676,-0.164307 l 2.17593,-2.175746 a 0.22719771,0.22719771 0 0 1 0.32049,-7.9e-5 z"
       inkscape:connector-curvature="0"
       style="fill:#cd0303;fill-opacity:1;stroke-width:0.26458332" />
    <text
       xml:space="preserve"
       style="font-style:normal;font-variant:normal;font-weight:normal;font-stretch:normal;font-size:2.82222223px;line-height:100%;font-family:Arial;-inkscape-font-specification:Arial;text-align:start;writing-mode:lr-tb;text-anchor:start;opacity:1;fill:#cd0303;fill-opacity:1;fill-rule:nonzero;stroke:none;stroke-width:0.2;stroke-linecap:butt;stroke-linejoin:round;stroke-miterlimit:4;stroke-dasharray:none;stroke-dashoffset:0;stroke-opacity:1"
       x="38.364586"
       y="76.545395"
       id="text1634"><tspan
         sodipodi:role="line"
         id="tspan1632"
         x="38.364586"
         y="76.545395"
         style="font-size:4.93888903px;stroke-width:0.2">xs, sm, md, lg, xl <tspan
   style="font-size:2.82222223px"
   id="tspan1636">e</tspan> xxl</tspan></text>
    <text
       xml:space="preserve"
       style="font-style:normal;font-variant:normal;font-weight:normal;font-stretch:normal;font-size:2.82222223px;line-height:100%;font-family:Arial;-inkscape-font-specification:Arial;text-align:start;writing-mode:lr-tb;text-anchor:start;opacity:1;fill:#1a1a1a;fill-opacity:1;fill-rule:nonzero;stroke:none;stroke-width:0.2;stroke-linecap:butt;stroke-linejoin:round;stroke-miterlimit:4;stroke-dasharray:none;stroke-dashoffset:0;stroke-opacity:1"
       x="44.405216"
       y="35.792171"
       id="text1615-9"><tspan
         sodipodi:role="line"
         id="tspan1613-1"
         x="44.405216"
         y="35.792171"
         style="fill:#1a1a1a;stroke-width:0.2">opcional</tspan></text>
    <path
       id="path868-6-5-2"
       d="m 49.20213,32.840751 2.175221,-2.175378 a 0.22434021,0.22434021 0 0 0 0.0691,-0.159014 l 1.6e-4,-0.0039 a 0.22558375,0.22558375 0 0 0 -0.0637,-0.157585 0.22865292,0.22865292 0 0 0 -0.32544,-7.15e-4 l -1.788871,1.78906 v -6.970263 a 0.22664208,0.22664208 0 1 0 -0.45326,0 v 6.970263 L 47.027,30.344874 a 0.22690667,0.22690667 0 0 0 -0.32049,-0.0057 0.22389042,0.22389042 0 0 0 -0.0683,0.161395 0.23677562,0.23677562 0 0 0 0.0676,0.164307 l 2.17593,2.175746 a 0.22719771,0.22719771 0 0 0 0.32049,7.9e-5 z"
       inkscape:connector-curvature="0"
       style="stroke-width:0.26458332" />
    <path
       id="path868-6-5-7"
       d="m 73.770582,44.274531 2.175222,-2.175378 a 0.22434021,0.22434021 0 0 0 0.0691,-0.159014 l 1.6e-4,-0.0039 a 0.22558375,0.22558375 0 0 0 -0.0637,-0.157585 0.22865292,0.22865292 0 0 0 -0.325441,-7.14e-4 l -1.788871,1.789059 v -6.970263 a 0.22664208,0.22664208 0 1 0 -0.45326,0 v 6.970263 l -1.78834,-1.788345 a 0.22690667,0.22690667 0 0 0 -0.32049,-0.0057 0.22389042,0.22389042 0 0 0 -0.0683,0.161395 0.23677562,0.23677562 0 0 0 0.0676,0.164307 l 2.17593,2.175746 a 0.22719771,0.22719771 0 0 0 0.32049,7.9e-5 z"
       inkscape:connector-curvature="0"
       style="stroke-width:0.26458332" />
    <text
       xml:space="preserve"
       style="font-style:normal;font-variant:normal;font-weight:normal;font-stretch:normal;font-size:2.82222223px;line-height:100%;font-family:Arial;-inkscape-font-specification:Arial;text-align:start;writing-mode:lr-tb;text-anchor:start;opacity:1;fill:#1a1a1a;fill-opacity:1;fill-rule:nonzero;stroke:none;stroke-width:0.2;stroke-linecap:butt;stroke-linejoin:round;stroke-miterlimit:4;stroke-dasharray:none;stroke-dashoffset:0;stroke-opacity:1"
       x="61.610119"
       y="35.629463"
       id="text1690"><tspan
         sodipodi:role="line"
         id="tspan1688"
         x="61.610119"
         y="35.629463"
         style="font-size:4.93888903px;stroke-width:0.2">0 <tspan
   style="font-size:2.82222223px"
   id="tspan1694">a</tspan> 5 <tspan
   style="font-size:2.82222223px"
   id="tspan1692">ou</tspan> auto</tspan></text>
  </g>
</svg>
