<?xml version="1.0" encoding="UTF-8" standalone="no"?>
<!-- Created with Inkscape (http://www.inkscape.org/) -->

<svg
   xmlns:dc="http://purl.org/dc/elements/1.1/"
   xmlns:cc="http://creativecommons.org/ns#"
   xmlns:rdf="http://www.w3.org/1999/02/22-rdf-syntax-ns#"
   xmlns:svg="http://www.w3.org/2000/svg"
   xmlns="http://www.w3.org/2000/svg"
   xmlns:sodipodi="http://sodipodi.sourceforge.net/DTD/sodipodi-0.dtd"
   xmlns:inkscape="http://www.inkscape.org/namespaces/inkscape"
   width="120.32854mm"
   height="119.30809mm"
   viewBox="0 0 120.32854 119.30809"
   version="1.1"
   id="svg8"
   inkscape:version="0.92.5 (2060ec1f9f, 2020-04-08)"
   sodipodi:docname="containerj.svg">
  <defs
     id="defs2">















	
	
	
	
<mask
   maskUnits="userSpaceOnUse"
   id="mask1667">
  <rect
     style="opacity:1;fill:#009f8a;fill-opacity:1;fill-rule:nonzero;stroke:none;stroke-width:0.49999997;stroke-linecap:butt;stroke-linejoin:round;stroke-miterlimit:4;stroke-dasharray:none;stroke-dashoffset:0;stroke-opacity:1"
     id="rect1669"
     width="75.812767"
     height="106.10474"
     x="32.169941"
     y="-10.755036" />
</mask>
</defs>
  <sodipodi:namedview
     id="base"
     pagecolor="#ffffff"
     bordercolor="#666666"
     borderopacity="1.0"
     inkscape:pageopacity="0.0"
     inkscape:pageshadow="2"
     inkscape:zoom="0.98994949"
     inkscape:cx="291.78542"
     inkscape:cy="236.45715"
     inkscape:document-units="mm"
     inkscape:current-layer="layer1"
     showgrid="false"
     fit-margin-top="0"
     fit-margin-left="0"
     fit-margin-right="0"
     fit-margin-bottom="0"
     inkscape:window-width="1866"
     inkscape:window-height="1016"
     inkscape:window-x="54"
     inkscape:window-y="27"
     inkscape:window-maximized="1" />
  <metadata
     id="metadata5">
    <rdf:RDF>
      <cc:Work
         rdf:about="">
        <dc:format>image/svg+xml</dc:format>
        <dc:type
           rdf:resource="http://purl.org/dc/dcmitype/StillImage" />
        <dc:title></dc:title>
      </cc:Work>
    </rdf:RDF>
  </metadata>
  <g
     inkscape:label="Camada 1"
     inkscape:groupmode="layer"
     id="layer1"
     transform="translate(-10.728438,19.540773)">
    <g
       id="g1446"
       transform="matrix(0.26458333,0,0,0.26458333,3.1595033,-35.676652)">
</g>
    <g
       id="g1448"
       transform="matrix(0.26458333,0,0,0.26458333,3.1595033,-35.676652)">
</g>
    <g
       id="g1450"
       transform="matrix(0.26458333,0,0,0.26458333,3.1595033,-35.676652)">
</g>
    <g
       id="g1452"
       transform="matrix(0.26458333,0,0,0.26458333,3.1595033,-35.676652)">
</g>
    <g
       id="g1454"
       transform="matrix(0.26458333,0,0,0.26458333,3.1595033,-35.676652)">
</g>
    <g
       id="g1456"
       transform="matrix(0.26458333,0,0,0.26458333,3.1595033,-35.676652)">
</g>
    <g
       id="g1458"
       transform="matrix(0.26458333,0,0,0.26458333,3.1595033,-35.676652)">
</g>
    <g
       id="g1460"
       transform="matrix(0.26458333,0,0,0.26458333,3.1595033,-35.676652)">
</g>
    <g
       id="g1462"
       transform="matrix(0.26458333,0,0,0.26458333,3.1595033,-35.676652)">
</g>
    <g
       id="g1464"
       transform="matrix(0.26458333,0,0,0.26458333,3.1595033,-35.676652)">
</g>
    <g
       id="g1466"
       transform="matrix(0.26458333,0,0,0.26458333,3.1595033,-35.676652)">
</g>
    <g
       id="g1468"
       transform="matrix(0.26458333,0,0,0.26458333,3.1595033,-35.676652)">
</g>
    <g
       id="g1470"
       transform="matrix(0.26458333,0,0,0.26458333,3.1595033,-35.676652)">
</g>
    <g
       id="g1472"
       transform="matrix(0.26458333,0,0,0.26458333,3.1595033,-35.676652)">
</g>
    <g
       id="g1474"
       transform="matrix(0.26458333,0,0,0.26458333,3.1595033,-35.676652)">
</g>
    <g
       id="g1821">
      <g
         id="g1692">
        <path
           inkscape:connector-curvature="0"
           style="fill:#ffffff;stroke:#000000;stroke-width:0.26458332;stroke-opacity:1"
           d="m 26.858761,-19.407423 h 88.068149 13.1101 c 1.58856,0 2.88767,1.300162 2.88767,2.887662 V 0.66704338 63.443936 C 105.63818,111.70526 36.147488,111.70526 10.86073,63.442613 V 0.66730796 -16.520819 c 0,-1.588558 1.29884,-2.887662 2.887663,-2.887662 h 13.110104 z"
           id="path1410" />
        <path
           inkscape:connector-curvature="0"
           style="fill:#5fdc96;fill-opacity:1;stroke:none;stroke-width:0.26458332;stroke-opacity:1"
           d="m 26.85876,-19.407749 h 88.06815 13.1101 c 1.58856,0 2.88767,1.300163 2.88767,2.887663 V 0.666719 63.443613 c -25.2865,48.261327 -94.77719,48.261327 -120.06395,-10e-4 V 0.666984 -16.521144 c 0,-1.588558 1.29884,-2.887663 2.88766,-2.887663 H 26.8585 Z"
           id="path1410-3"
           mask="url(#mask1667)" />
        <path
           inkscape:connector-curvature="0"
           style="fill:#828282;stroke-width:0.26458332"
           d="M 13.748657,-19.407423 H 128.03596 c 1.58855,0 2.88766,1.29884 2.88766,2.887662 v 5.775325 H 10.859672 v -5.775325 c 0,-1.588558 1.29884,-2.887662 2.887662,-2.887662 0,0 0.0013,0 0.0013,0 z"
           id="path1412" />
        <path
           inkscape:connector-curvature="0"
           style="fill:#ffffff;stroke-width:0.26458332"
           d="m 64.312119,-16.415779 h 57.997191 c 0.42863,0 0.77603,0.347398 0.77603,0.776023 v 1.439597 c 0,0.428625 -0.3474,0.776023 -0.77603,0.776023 H 64.312119 c -0.428625,0 -0.776023,-0.347398 -0.776023,-0.776023 v -1.439597 c 0,-0.42889 0.347398,-0.776023 0.776023,-0.776023 z"
           id="path1414" />
        <circle
           style="fill:#21d0c3;stroke-width:0.26458332"
           cx="16.621767"
           cy="-15.269605"
           r="1.6631707"
           id="circle1416" />
        <circle
           style="fill:#fad24d;stroke-width:0.26458332"
           cx="23.186344"
           cy="-15.269605"
           r="1.6631707"
           id="circle1418" />
        <circle
           style="fill:#ff5b62;stroke-width:0.26458332"
           cx="29.751186"
           cy="-15.269605"
           r="1.6631707"
           id="circle1420" />
        <g
           id="g1613"
           transform="matrix(0.70698505,0,0,0.70698505,20.016321,-2.7595977)"
           style="stroke-width:1.41445708">
          <rect
             id="rect1422"
             height="35.318962"
             width="107.06629"
             style="fill:#ecf0f1;stroke-width:0.37424174"
             y="-7.5667906"
             x="17.358368" />
          <g
             id="g1598"
             style="stroke-width:1.41445708">
            <circle
               style="fill:#ff5b62;stroke-width:0.37424174"
               cx="33.244743"
               cy="40.026196"
               r="7.1170268"
               id="circle1424" />
            <circle
               style="fill:#21d0c3;stroke-width:0.37424174"
               cx="70.892838"
               cy="40.026196"
               r="7.1170268"
               id="circle1426" />
            <circle
               style="fill:#fad24d;stroke-width:0.37424174"
               cx="108.54092"
               cy="40.026196"
               r="7.1170268"
               id="circle1428" />
            <g
               id="g1436"
               transform="matrix(0.26458333,0,0,0.26458333,3.1595033,-35.676652)"
               style="stroke-width:1.41445708">
	<path
   inkscape:connector-curvature="0"
   style="fill:#dce3db;stroke-width:1.41445708"
   d="m 75.11,321.993 h 77.19 v 5.459 H 75.11 Z m 0,34.308 h 51.851 v 5.459 H 75.11 Z m 0,-17.153 h 77.19 v 5.459 H 75.11 Z"
   id="path1430" />

	<path
   inkscape:connector-curvature="0"
   style="fill:#dce3db;stroke-width:1.41445708"
   d="m 217.405,321.993 h 77.189 v 5.459 h -77.189 z m 0,34.308 h 51.851 v 5.459 h -51.851 z m 0,-17.153 h 77.189 v 5.459 h -77.189 z"
   id="path1432" />

	<path
   inkscape:connector-curvature="0"
   style="fill:#dce3db;stroke-width:1.41445708"
   d="m 359.696,321.993 h 77.189 v 5.459 h -77.189 z m 0,34.308 h 51.851 v 5.459 h -51.851 z m 0,-17.153 h 77.189 v 5.459 h -77.189 z"
   id="path1434" />

</g>
            <g
               id="g1444"
               transform="matrix(0.26458333,0,0,0.26458333,3.1595033,-35.676652)"
               style="stroke-width:1.41445708">
	<path
   inkscape:connector-curvature="0"
   style="fill:#ecf0f1;stroke-width:1.41445708"
   d="m 75.11,396.683 h 99.526 v 77.97 h -51.832 c -17.366,-10.6 -33.371,-23.21 -47.694,-37.509 z m 361.78,40.46 c -14.318,14.3 -30.327,26.909 -47.694,37.509 h -51.832 v -77.97 h 99.526 z m -230.653,37.51 v -77.97 h 99.526 v 77.97 z"
   id="path1438" />

	<rect
   x="112.63"
   y="386.146"
   style="fill:#ecf0f1;stroke-width:1.41445708"
   width="284.724"
   height="1.677"
   id="rect1440" />

	<rect
   x="112.63"
   y="248.255"
   style="fill:#ecf0f1;stroke-width:1.41445708"
   width="284.724"
   height="1.677"
   id="rect1442" />

</g>
          </g>
        </g>
      </g>
      <text
         id="text1696"
         y="-3.0747697"
         x="13.285978"
         style="font-style:normal;font-variant:normal;font-weight:normal;font-stretch:normal;font-size:4.93888855px;line-height:100%;font-family:Arial;-inkscape-font-specification:Arial;text-align:start;writing-mode:lr-tb;text-anchor:start;opacity:1;fill:#000000;fill-opacity:1;fill-rule:nonzero;stroke:none;stroke-width:0.5;stroke-linecap:butt;stroke-linejoin:round;stroke-miterlimit:4;stroke-dasharray:none;stroke-dashoffset:0;stroke-opacity:1"
         xml:space="preserve"><tspan
           style="stroke-width:0.5"
           y="-3.0747697"
           x="13.285978"
           id="tspan1694"
           sodipodi:role="line">Display</tspan></text>
      <text
         id="text1700"
         y="13.817551"
         x="108.45686"
         style="font-style:normal;font-variant:normal;font-weight:normal;font-stretch:normal;font-size:4.93888855px;line-height:100%;font-family:Arial;-inkscape-font-specification:Arial;text-align:start;writing-mode:lr-tb;text-anchor:start;opacity:1;fill:#000000;fill-opacity:1;fill-rule:nonzero;stroke:none;stroke-width:0.5;stroke-linecap:butt;stroke-linejoin:round;stroke-miterlimit:4;stroke-dasharray:none;stroke-dashoffset:0;stroke-opacity:1"
         xml:space="preserve"><tspan
           style="stroke-width:0.5"
           y="13.817551"
           x="108.45686"
           id="tspan1698"
           sodipodi:role="line">Container</tspan></text>
      <path
         inkscape:connector-curvature="0"
         id="path1702"
         d="M 10.961309,-7.0818456 H 130.78862"
         style="fill:#f22a2a;fill-opacity:1;fill-rule:evenodd;stroke:#ff4848;stroke-width:1;stroke-linecap:butt;stroke-linejoin:miter;stroke-miterlimit:4;stroke-dasharray:none;stroke-opacity:1" />
      <path
         inkscape:connector-curvature="0"
         id="path1702-6"
         d="M 32.181338,12.224318 H 108.00154"
         style="fill:#f22a2a;fill-opacity:1;fill-rule:evenodd;stroke:#ff4848;stroke-width:1;stroke-linecap:butt;stroke-linejoin:miter;stroke-miterlimit:4;stroke-dasharray:none;stroke-opacity:1" />
    </g>
  </g>
</svg>
